<?xml version="1.0" encoding="UTF-8"?>
<svg version="1.1" xmlns="http://www.w3.org/2000/svg" width="165" height="37">
<path d="M0 0 C3.96 0 7.92 0 12 0 C12 1.32 12 2.64 12 4 C13.093125 3.938125 14.18625 3.87625 15.3125 3.8125 C19 4 19 4 20.9375 5.5 C21.288125 5.995 21.63875 6.49 22 7 C22.33 6.505 22.66 6.01 23 5.5 C26.17572747 3.11820439 29.10246066 3.80831774 33 4 C33.33 2.68 33.66 1.36 34 0 C35.65 0 37.3 0 39 0 C39.66 1.98 40.32 3.96 41 6 C41.33 5.01 41.66 4.02 42 3 C44.64 3 47.28 3 50 3 C50.495 4.485 50.495 4.485 51 6 C51.33 5.34 51.66 4.68 52 4 C58.6 4 65.2 4 72 4 C73 10 73 10 71 13 C70.835 13.825 70.67 14.65 70.5 15.5 C70 18 70 18 68 21 C64.375 21.1875 64.375 21.1875 61 21 C61 22.32 61 23.64 61 25 C58.28071483 24.62492618 57.15781339 24.15781339 55.1875 22.1875 C54 20 54 20 54.3125 17.75 C54.539375 17.1725 54.76625 16.595 55 16 C54.01 16 53.02 16 52 16 C52.495 20.455 52.495 20.455 53 25 C50.36 24.67 47.72 24.34 45 24 C44.83723958 21.98177083 44.67447917 19.96354167 44.51171875 17.9453125 C44.12606964 15.60480784 44.12606964 15.60480784 41 14 C41 14.99 41 15.98 41 17 C41 18.32 41 19.64 41 21 C40.34 21.66 39.68 22.32 39 23 C39.495 23.99 39.495 23.99 40 25 C38.35 25 36.7 25 35 25 C35 22.03 35 19.06 35 16 C34.01 16.33 33.02 16.66 32 17 C31.67 17.99 31.34 18.98 31 20 C31.66 20.33 32.32 20.66 33 21 C32.505 22.485 32.505 22.485 32 24 C29.05610218 25.17755913 28.10046087 25.03348696 25 24 C25.66 21.36 26.32 18.72 27 16 C25.68 16.33 24.36 16.66 23 17 C22.25042843 20.47147842 22.25042843 20.47147842 22 24 C18.25 25.125 18.25 25.125 16 24 C16 21.36 16 18.72 16 16 C14.68 16 13.36 16 12 16 C12 18.64 12 21.28 12 24 C9.625 24.125 9.625 24.125 7 24 C5 22 5 22 4.875 19.375 C4.91625 18.59125 4.9575 17.8075 5 17 C3.35 16.67 1.7 16.34 0 16 C0 10.72 0 5.44 0 0 Z M9 6 C10 8 10 8 10 8 Z M28 8 C27.67 9.32 27.34 10.64 27 12 C27.66 11.67 28.32 11.34 29 11 C28.67 10.01 28.34 9.02 28 8 Z M46 8 C47 12 47 12 47 12 Z M52 8 C53 11 53 11 53 11 Z M61 8 C59.23537317 11.08809695 59 12.23312136 59 16 C59.99 16 60.98 16 62 16 C61.67 16.99 61.34 17.98 61 19 C61.66 19.33 62.32 19.66 63 20 C63 18.68 63 17.36 63 16 C63.66 15.67 64.32 15.34 65 15 C64.34 14.01 63.68 13.02 63 12 C62.31822584 10.67432801 61.64808564 9.34246312 61 8 Z M67 8 C68 10 68 10 68 10 Z M39 9 C40 11 40 11 40 11 Z M9 10 C7.70366379 11.06645115 7.70366379 11.06645115 7.9375 13.5625 C7.958125 14.366875 7.97875 15.17125 8 16 C9.32 15.67 10.64 15.34 12 15 C11.34 13.35 10.68 11.7 10 10 C9.67 10 9.34 10 9 10 Z M33 12 C33 15 33 15 33 15 Z M51 12 C50.34 13.32 49.68 14.64 49 16 C49.99 15.67 50.98 15.34 52 15 C51.67 14.01 51.34 13.02 51 12 Z M22 13 C22 13.66 22 14.32 22 15 C22.66 14.67 23.32 14.34 24 14 C23.34 13.67 22.68 13.34 22 13 Z M30 15 C31 17 31 17 31 17 Z M48 16 C49 19 49 19 49 19 Z M58 16 C59 18 59 18 59 18 Z M8 19 C9 21 9 21 9 21 Z " fill="#000000" transform="translate(86,5)"/>
<path d="M0 0 C2.375 1.1875 2.375 1.1875 3.375 3.1875 C3.045 3.8475 2.715 4.5075 2.375 5.1875 C3.32375 5.1875 4.2725 5.1875 5.25 5.1875 C6.95833333 5.1875 8.66666667 5.1875 10.375 5.1875 C11.98375 4.9090625 11.98375 4.9090625 13.625 4.625 C17.20702731 4.20709681 19.87822041 4.41991424 23.375 5.1875 C23.705 3.5375 24.035 1.8875 24.375 0.1875 C26.685 0.1875 28.995 0.1875 31.375 0.1875 C31.57144384 2.08242746 31.75677288 3.97850903 31.9375 5.875 C32.09412109 7.45861328 32.09412109 7.45861328 32.25390625 9.07421875 C32.36777552 12.00176086 32.08348415 14.35881144 31.375 17.1875 C30.055 17.1875 28.735 17.1875 27.375 17.1875 C27.87 19.1675 27.87 19.1675 28.375 21.1875 C27.385 20.8575 26.395 20.5275 25.375 20.1875 C25.375 21.8375 25.375 23.4875 25.375 25.1875 C24.385 25.1875 23.395 25.1875 22.375 25.1875 C20.9143715 22.54011084 20.375 21.29301666 20.375 18.1875 C17.9 17.1975 17.9 17.1975 15.375 16.1875 C15.705 16.5175 16.035 16.8475 16.375 17.1875 C18.375 20.1875 18.375 20.1875 18 22.375 C17.79375 22.973125 17.5875 23.57125 17.375 24.1875 C15 24.8125 15 24.8125 12.375 25.1875 C11.715 24.5275 11.055 23.8675 10.375 23.1875 C10.75 20.5625 10.75 20.5625 11.375 18.1875 C10.385 18.1875 9.395 18.1875 8.375 18.1875 C8.045 20.4975 7.715 22.8075 7.375 25.1875 C3.415 25.6825 3.415 25.6825 -0.625 26.1875 C-0.295 23.2175 0.035 20.2475 0.375 17.1875 C-1.98453094 19.54703094 -2.11641413 20.96645617 -2.625 24.1875 C-4.605 24.5175 -6.585 24.8475 -8.625 25.1875 C-8.625 22.5475 -8.625 19.9075 -8.625 17.1875 C-12.585 17.6825 -12.585 17.6825 -16.625 18.1875 C-16.625 12.2475 -16.625 6.3075 -16.625 0.1875 C-12.47460938 0.23632812 -12.47460938 0.23632812 -8.32421875 0.28515625 C-0.04630968 -0.01433395 -0.04630968 -0.01433395 0 0 Z M-3.625 2.1875 C-2.625 4.1875 -2.625 4.1875 -2.625 4.1875 Z M-9.625 5.1875 C-8.625 7.1875 -8.625 7.1875 -8.625 7.1875 Z M14.375 6.1875 C15.375 8.1875 15.375 8.1875 15.375 8.1875 Z M23.375 6.1875 C24.035 7.5075 24.695 8.8275 25.375 10.1875 C25.375 8.8675 25.375 7.5475 25.375 6.1875 C24.715 6.1875 24.055 6.1875 23.375 6.1875 Z M-3.625 8.1875 C-2.625 10.1875 -2.625 10.1875 -2.625 10.1875 Z M4.375 10.1875 C5.375 12.1875 5.375 12.1875 5.375 12.1875 Z M12.375 10.1875 C13.375 12.1875 13.375 12.1875 13.375 12.1875 Z M-9.625 11.1875 C-9.295 13.1675 -8.965 15.1475 -8.625 17.1875 C-6.645 16.8575 -4.665 16.5275 -2.625 16.1875 C-2.625 14.8675 -2.625 13.5475 -2.625 12.1875 C-4.935 11.8575 -7.245 11.5275 -9.625 11.1875 Z M24.375 13.1875 C25.375 15.1875 25.375 15.1875 25.375 15.1875 Z M23.375 15.1875 C23.045 15.8475 22.715 16.5075 22.375 17.1875 C23.365 16.8575 24.355 16.5275 25.375 16.1875 C24.715 15.8575 24.055 15.5275 23.375 15.1875 Z M3.375 17.1875 C4.375 20.1875 4.375 20.1875 4.375 20.1875 Z M13.375 20.1875 C13.375 20.8475 13.375 21.5075 13.375 22.1875 C14.035 22.1875 14.695 22.1875 15.375 22.1875 C15.375 21.5275 15.375 20.8675 15.375 20.1875 C14.715 20.1875 14.055 20.1875 13.375 20.1875 Z " fill="#000000" transform="translate(50.625,3.8125)"/>
<path d="M0 0 C2.31691454 0.72166191 4.64848923 1.40059529 7 2 C7.43995881 10.59141782 7.46309065 17.46853452 3 25 C0.69 25 -1.62 25 -4 25 C-4 27.97 -4 30.94 -4 34 C-12.96103896 33.1038961 -12.96103896 33.1038961 -16 31 C-18.18994248 27.71508627 -18.35277339 26.16904361 -18.625 22.3125 C-18.73714844 20.82169922 -18.73714844 20.82169922 -18.8515625 19.30078125 C-18.92503906 18.16189453 -18.92503906 18.16189453 -19 17 C-19.99 17.33 -20.98 17.66 -22 18 C-22.02712351 15.60408962 -22.0468982 13.20849043 -22.0625 10.8125 C-22.07087891 10.13896484 -22.07925781 9.46542969 -22.08789062 8.77148438 C-22.10606538 5.04565869 -21.89299392 1.6211958 -21 -2 C-6.17647059 -4.11764706 -6.17647059 -4.11764706 0 0 Z M-20 3 C-20 6.96 -20 10.92 -20 15 C-19.01 14.67 -18.02 14.34 -17 14 C-17.33 13.01 -17.66 12.02 -18 11 C-18.03954234 8.66700175 -18.04401732 6.33291811 -18 4 C-18.66 3.67 -19.32 3.34 -20 3 Z M3 3 C3.33 5.64 3.66 8.28 4 11 C4.33 11 4.66 11 5 11 C5 8.36 5 5.72 5 3 C4.34 3 3.68 3 3 3 Z " fill="#060606" transform="translate(22,3)"/>
<path d="M0 0 C0 1.98 0 3.96 0 6 C-0.64453125 6.22429688 -1.2890625 6.44859375 -1.953125 6.6796875 C-4.24388852 7.82889456 -4.24388852 7.82889456 -4.609375 10.3828125 C-4.67898437 11.74019531 -4.67898437 11.74019531 -4.75 13.125 C-4.80671875 14.03507812 -4.8634375 14.94515625 -4.921875 15.8828125 C-4.94765625 16.58148438 -4.9734375 17.28015625 -5 18 C-13.96103896 17.1038961 -13.96103896 17.1038961 -17 15 C-19.56616632 11.15075052 -19.55097676 8.5650696 -20 4 C-15.85624008 1.49810722 -12.35908704 1.91828189 -7.65625 2.125 C-4.78376117 1.98982406 -2.59274324 0 0 0 Z " fill="#343434" transform="translate(23,19)"/>
<path d="M0 0 C0.66 0.33 1.32 0.66 2 1 C2.33 1.99 2.66 2.98 3 4 C3.66 4.33 4.32 4.66 5 5 C5.33975517 8.65236803 5.20830209 10.61672415 3.4375 13.875 C1 16 1 16 -2.6875 16.375 C-6 16 -6 16 -7 15 C-7.66 15 -8.32 15 -9 15 C-11.45945333 11.31082001 -11.6807995 8.28300443 -11 4 C-8.13125414 -0.58999337 -5.13686256 -0.47563542 0 0 Z " fill="#949494" transform="translate(18,4)"/>
<path d="M0 0 C0 1.32 0 2.64 0 4 C-0.99 4.33 -1.98 4.66 -3 5 C-2.34 5.33 -1.68 5.66 -1 6 C-1 7.32 -1 8.64 -1 10 C-3.875 9.4375 -3.875 9.4375 -7 8 C-8.375 4.375 -8.375 4.375 -9 1 C-5.64919071 -1.10976881 -3.77897651 -1.0497157 0 0 Z " fill="#ADADAD" transform="translate(12,22)"/>
<path d="M0 0 C0.66 2.31 1.32 4.62 2 7 C-1 8 -1 8 -3.625 7.4375 C-6 6 -6 6 -6.8125 2.875 C-6.874375 1.92625 -6.93625 0.9775 -7 0 C-4.3333581 -1.33332095 -2.83319697 -0.67102033 0 0 Z M-3 2 C-2 5 -2 5 -2 5 Z " fill="#000000" transform="translate(87,22)"/>
<path d="M0 0 C0 1.98 0 3.96 0 6 C-2.75 7.625 -2.75 7.625 -6 9 C-8.375 8.1875 -8.375 8.1875 -10 7 C-10 5.68 -10 4.36 -10 3 C-8.52144705 2.49818809 -7.04213942 1.99859924 -5.5625 1.5 C-4.73878906 1.2215625 -3.91507813 0.943125 -3.06640625 0.65625 C-1 0 -1 0 0 0 Z " fill="#BEBEBE" transform="translate(23,19)"/>
<path d="M0 0 C0.66 0.33 1.32 0.66 2 1 C2 1.66 2 2.32 2 3 C-1.3 3 -4.6 3 -8 3 C-8.19814261 9.08408472 -8.19814261 9.08408472 -7 15 C-7.66 15 -8.32 15 -9 15 C-11.45945333 11.31082001 -11.6807995 8.28300443 -11 4 C-8.13125414 -0.58999337 -5.13686256 -0.47563542 0 0 Z " fill="#575757" transform="translate(18,4)"/>
<path d="M0 0 C0.66 0.33 1.32 0.66 2 1 C1.125 7.75 1.125 7.75 0 10 C-2.31 10 -4.62 10 -7 10 C-6.34 9.01 -5.68 8.02 -5 7 C-4.01 7 -3.02 7 -2 7 C-2 5.02 -2 3.04 -2 1 C-1.34 0.67 -0.68 0.34 0 0 Z " fill="#5C5C5C" transform="translate(25,18)"/>
<path d="M0 0 C0.66 0.33 1.32 0.66 2 1 C2.33975517 4.65236803 2.20830209 6.61672415 0.4375 9.875 C-2 12 -2 12 -5.75 12.3125 C-6.8225 12.209375 -7.895 12.10625 -9 12 C-7 10 -7 10 -4.5 9.375 C-1.87780005 8.27584048 -1.87780005 8.27584048 -1.23046875 6.09375 C-0.73788731 4.08089923 -0.36200324 2.04038192 0 0 Z " fill="#5A5A5A" transform="translate(21,8)"/>
<path d="M0 0 C5.94 2.475 5.94 2.475 12 5 C12 5.66 12 6.32 12 7 C5.08571429 7.31428571 5.08571429 7.31428571 2 5 C1.34 3.35 0.68 1.7 0 0 Z " fill="#0C0C0C" transform="translate(4,29)"/>
<path d="M0 0 C2.0625 0.4375 2.0625 0.4375 4 1 C4 2.32 4 3.64 4 5 C2.68 5.33 1.36 5.66 0 6 C-0.38218767 4.34385343 -0.71395102 2.67542976 -1 1 C-0.67 0.67 -0.34 0.34 0 0 Z " fill="#040404" transform="translate(13,9)"/>
<path d="M0 0 C-1.26213042 3.78639125 -2.65345351 4.04104596 -6 6 C-6.66 6.99 -7.32 7.98 -8 9 C-8.36190476 3.57142857 -8.36190476 3.57142857 -6.8125 1.125 C-4.43963721 -0.34781139 -2.74086056 -0.22223194 0 0 Z " fill="#B9B9B9" transform="translate(17,6)"/>
<path d="M0 0 C2.475 0.495 2.475 0.495 5 1 C5 2.65 5 4.3 5 6 C3.35 5.67 1.7 5.34 0 5 C0 3.35 0 1.7 0 0 Z " fill="#E3E3E3" transform="translate(12,28)"/>
<path d="M0 0 C2.475 0.495 2.475 0.495 5 1 C5 2.32 5 3.64 5 5 C3.68 5.33 2.36 5.66 1 6 C0.67 4.02 0.34 2.04 0 0 Z " fill="#E4E4E4" transform="translate(7,21)"/>
<path d="M0 0 C0 1.98 0 3.96 0 6 C-1.32 6 -2.64 6 -4 6 C-4 4.68 -4 3.36 -4 2 C-1 0 -1 0 0 0 Z " fill="#EFEFEF" transform="translate(23,19)"/>
<path d="M0 0 C1.98 0.99 1.98 0.99 4 2 C2.68 1.67 1.36 1.34 0 1 C0 0.67 0 0.34 0 0 Z " fill="#000000" transform="translate(126,20)"/>
<path d="M0 0 C0.66 0.33 1.32 0.66 2 1 C1.01 1 0.02 1 -1 1 C-0.67 0.67 -0.34 0.34 0 0 Z " fill="#000000" transform="translate(108,9)"/>
<path d="M0 0 C0.66 0.66 1.32 1.32 2 2 C1.34 2 0.68 2 0 2 C0 1.34 0 0.68 0 0 Z " fill="#000000" transform="translate(61,28)"/>
<path d="M0 0 C0.33 0.66 0.66 1.32 1 2 C0.34 1.67 -0.32 1.34 -1 1 C-0.67 0.67 -0.34 0.34 0 0 Z " fill="#000000" transform="translate(68,28)"/>
<path d="M0 0 C0.33 0.66 0.66 1.32 1 2 C0.34 1.67 -0.32 1.34 -1 1 C-0.67 0.67 -0.34 0.34 0 0 Z " fill="#000000" transform="translate(127,26)"/>
<path d="" fill="#000000" transform="translate(0,0)"/>
<path d="M0 0 C2 1 2 1 2 1 Z " fill="#000000" transform="translate(72,8)"/>
<path d="M0 0 C2 1 2 1 2 1 Z " fill="#000000" transform="translate(59,8)"/>
<path d="M0 0 C2 1 2 1 2 1 Z " fill="#000000" transform="translate(22,2)"/>
<path d="M0 0 C2 1 2 1 2 1 Z " fill="#000000" transform="translate(19,0)"/>
<path d="" fill="#000000" transform="translate(0,0)"/>
<path d="" fill="#000000" transform="translate(0,0)"/>
<path d="" fill="#000000" transform="translate(0,0)"/>
<path d="" fill="#000000" transform="translate(0,0)"/>
<path d="" fill="#000000" transform="translate(0,0)"/>
<path d="" fill="#000000" transform="translate(0,0)"/>
<path d="" fill="#000000" transform="translate(0,0)"/>
<path d="" fill="#000000" transform="translate(0,0)"/>
<path d="" fill="#000000" transform="translate(0,0)"/>
<path d="" fill="#000000" transform="translate(0,0)"/>
<path d="" fill="#000000" transform="translate(0,0)"/>
<path d="" fill="#000000" transform="translate(0,0)"/>
<path d="" fill="#000000" transform="translate(0,0)"/>
<path d="" fill="#000000" transform="translate(0,0)"/>
<path d="" fill="#000000" transform="translate(0,0)"/>
<path d="" fill="#000000" transform="translate(0,0)"/>
<path d="" fill="#000000" transform="translate(0,0)"/>
<path d="" fill="#000000" transform="translate(0,0)"/>
<path d="" fill="#000000" transform="translate(0,0)"/>
<path d="" fill="#000000" transform="translate(0,0)"/>
<path d="" fill="#000000" transform="translate(0,0)"/>
<path d="" fill="#000000" transform="translate(0,0)"/>
<path d="" fill="#000000" transform="translate(0,0)"/>
<path d="" fill="#000000" transform="translate(0,0)"/>
<path d="" fill="#000000" transform="translate(0,0)"/>
<path d="" fill="#000000" transform="translate(0,0)"/>
<path d="" fill="#000000" transform="translate(0,0)"/>
<path d="" fill="#000000" transform="translate(0,0)"/>
<path d="" fill="#000000" transform="translate(0,0)"/>
<path d="" fill="#000000" transform="translate(0,0)"/>
<path d="" fill="#000000" transform="translate(0,0)"/>
<path d="" fill="#000000" transform="translate(0,0)"/>
<path d="" fill="#000000" transform="translate(0,0)"/>
<path d="" fill="#000000" transform="translate(0,0)"/>
<path d="" fill="#000000" transform="translate(0,0)"/>
<path d="" fill="#000000" transform="translate(0,0)"/>
<path d="" fill="#000000" transform="translate(0,0)"/>
<path d="" fill="#000000" transform="translate(0,0)"/>
<path d="" fill="#000000" transform="translate(0,0)"/>
<path d="" fill="#000000" transform="translate(0,0)"/>
<path d="" fill="#000000" transform="translate(0,0)"/>
<path d="" fill="#000000" transform="translate(0,0)"/>
<path d="" fill="#000000" transform="translate(0,0)"/>
<path d="" fill="#000000" transform="translate(0,0)"/>
<path d="" fill="#000000" transform="translate(0,0)"/>
<path d="" fill="#000000" transform="translate(0,0)"/>
<path d="" fill="#000000" transform="translate(0,0)"/>
<path d="" fill="#000000" transform="translate(0,0)"/>
<path d="" fill="#000000" transform="translate(0,0)"/>
<path d="" fill="#000000" transform="translate(0,0)"/>
<path d="" fill="#000000" transform="translate(0,0)"/>
<path d="" fill="#000000" transform="translate(0,0)"/>
<path d="" fill="#000000" transform="translate(0,0)"/>
<path d="" fill="#000000" transform="translate(0,0)"/>
<path d="" fill="#000000" transform="translate(0,0)"/>
<path d="" fill="#000000" transform="translate(0,0)"/>
<path d="" fill="#000000" transform="translate(0,0)"/>
<path d="" fill="#000000" transform="translate(0,0)"/>
<path d="" fill="#000000" transform="translate(0,0)"/>
<path d="" fill="#000000" transform="translate(0,0)"/>
</svg>
