<svg width="25" height="24" viewBox="0 0 25 24" fill="none" xmlns="http://www.w3.org/2000/svg">
<path d="M20.3778 20.9277C18.3112 20.9277 16.2694 20.4773 14.2524 19.5766C12.2354 18.6759 10.4002 17.3986 8.74698 15.7447C7.0937 14.0907 5.81671 12.2556 4.91601 10.2393C4.01531 8.22293 3.56463 6.18114 3.56396 4.11389C3.56396 3.8163 3.66316 3.56831 3.86155 3.36992C4.05995 3.17152 4.30794 3.07233 4.60553 3.07233H8.62298C8.85444 3.07233 9.0611 3.15102 9.24296 3.30841C9.42482 3.46581 9.53228 3.65163 9.56535 3.8659L10.2101 7.33777C10.2432 7.6023 10.2349 7.82549 10.1853 8.00735C10.1357 8.18921 10.0448 8.34627 9.91253 8.47853L7.50702 10.9088C7.83768 11.5206 8.23016 12.1114 8.68448 12.6815C9.1388 13.2515 9.63908 13.8014 10.1853 14.3311C10.6978 14.8436 11.2352 15.3191 11.7973 15.7576C12.3594 16.196 12.9546 16.5968 13.5828 16.9598L15.9139 14.6287C16.0627 14.4799 16.2571 14.3685 16.4972 14.2944C16.7372 14.2203 16.9727 14.1995 17.2035 14.2319L20.6257 14.9263C20.8572 14.9924 21.0473 15.1125 21.1961 15.2864C21.3449 15.4603 21.4193 15.6544 21.4193 15.8687V19.8861C21.4193 20.1837 21.3201 20.4317 21.1217 20.6301C20.9233 20.8285 20.6753 20.9277 20.3778 20.9277Z" fill="white"/>
</svg>
