<svg width="29" height="30" viewBox="0 0 29 30" fill="none" xmlns="http://www.w3.org/2000/svg">
<path fill-rule="evenodd" clip-rule="evenodd" d="M14.5 5.33317C12.7958 5.33279 11.1218 5.78293 9.64772 6.63796C8.17359 7.49299 6.95169 8.72252 6.10587 10.202C5.26004 11.6814 4.82035 13.3581 4.83135 15.0622C4.84235 16.7664 5.30365 18.4373 6.16851 19.9057L6.85605 20.7733L6.01385 23.6237L8.81718 22.8407L9.27514 23.1343C10.539 23.9457 11.9745 24.4515 13.4678 24.6115C14.9612 24.7715 16.4713 24.5813 17.8783 24.0561C19.2854 23.5308 20.5507 22.6849 21.5739 21.5855C22.5971 20.4861 23.35 19.1634 23.773 17.7223C24.196 16.2812 24.2774 14.7613 24.0107 13.2833C23.744 11.8053 23.1365 10.4097 22.2366 9.20735C21.3366 8.00496 20.1689 7.02881 18.8259 6.35633C17.483 5.68385 16.0019 5.33354 14.5 5.33317ZM2.41664 14.9998C2.41664 8.32621 7.82635 2.9165 14.5 2.9165C21.1736 2.9165 26.5833 8.32621 26.5833 14.9998C26.5833 21.6735 21.1736 27.0832 14.5 27.0832C12.3712 27.0862 10.2798 26.5246 8.43897 25.4555L2.46014 27.1255L4.18322 21.2904L4.17597 21.282L4.1361 21.2155C3.00815 19.3386 2.41366 17.1896 2.41664 14.9998Z" fill="black"/>
<path d="M20.2214 16.8027C20.1755 16.7809 18.4125 15.9133 18.0996 15.7998C17.969 15.7458 17.8299 15.7151 17.6887 15.7091C17.4519 15.7091 17.2513 15.8276 17.0967 16.0608C16.9202 16.323 16.3874 16.9453 16.223 17.1313C16.2013 17.1555 16.1723 17.1857 16.1542 17.1857C16.1384 17.1857 15.8654 17.0733 15.7832 17.0371C13.8934 16.2154 12.4591 14.2422 12.2621 13.9087C12.2343 13.8604 12.2331 13.8398 12.2331 13.8398C12.2392 13.8145 12.3032 13.7504 12.3358 13.7178C12.4325 13.6223 12.5364 13.4979 12.6367 13.3758L12.7781 13.2067C12.9243 13.0375 12.9895 12.9046 13.0644 12.7536L13.1043 12.6738C13.1641 12.5528 13.1932 12.419 13.189 12.2841C13.1847 12.1492 13.1474 12.0175 13.0802 11.9005C13.0391 11.8171 12.2947 10.0215 12.2162 9.83302C12.0253 9.37747 11.7739 9.16602 11.4247 9.16602C11.3921 9.16602 11.4247 9.16602 11.2894 9.17206C11.1239 9.1781 10.2224 9.29772 9.8237 9.54785C9.40078 9.81368 8.68787 10.6643 8.68787 12.1578C8.68787 13.5015 9.53974 14.7703 9.90587 15.2524L9.95541 15.3249C11.3583 17.373 13.1067 18.8907 14.8782 19.5988C16.5843 20.2803 17.3927 20.36 17.8519 20.36C18.0452 20.36 18.1999 20.3443 18.3352 20.331L18.4222 20.3226C19.0119 20.2706 20.3072 19.5988 20.602 18.7807C20.834 18.1355 20.8957 17.431 20.741 17.1748C20.6347 17.0008 20.4522 16.9138 20.2214 16.8027Z" fill="black"/>
</svg>
