<svg width="29" height="30" viewBox="0 0 29 30" fill="none" xmlns="http://www.w3.org/2000/svg">
<path d="M27.1875 14.9208C27.1875 14.8585 27.1875 14.7877 27.1847 14.7056C27.1818 14.4762 27.1762 14.2185 27.1705 13.9438C27.1479 13.1536 27.1082 12.3663 27.0459 11.6243C26.9609 10.602 26.8363 9.74951 26.6664 9.10947C26.4871 8.44154 26.1356 7.83236 25.6471 7.34284C25.1585 6.85332 24.5501 6.50059 23.8825 6.31992C23.0811 6.10469 21.5121 5.97158 19.3031 5.88945C18.2524 5.8498 17.1281 5.82432 16.0038 5.81016C15.6102 5.80449 15.2448 5.80166 14.9163 5.79883H14.0837C13.7552 5.80166 13.3898 5.80449 12.9962 5.81016C11.8719 5.82432 10.7476 5.8498 9.69687 5.88945C7.48789 5.97441 5.91611 6.10752 5.11748 6.31992C4.44969 6.50015 3.841 6.85273 3.3524 7.34232C2.8638 7.83191 2.51247 8.44132 2.33359 9.10947C2.16084 9.74951 2.03906 10.602 1.9541 11.6243C1.8918 12.3663 1.85215 13.1536 1.82949 13.9438C1.821 14.2185 1.81816 14.4762 1.81533 14.7056C1.81533 14.7877 1.8125 14.8585 1.8125 14.9208V15.0794C1.8125 15.1417 1.8125 15.2125 1.81533 15.2946C1.81816 15.524 1.82383 15.7817 1.82949 16.0564C1.85215 16.8466 1.8918 17.6339 1.9541 18.3759C2.03906 19.3982 2.16367 20.2507 2.33359 20.8907C2.69609 22.2473 3.76094 23.3178 5.11748 23.6803C5.91611 23.8955 7.48789 24.0286 9.69687 24.1107C10.7476 24.1504 11.8719 24.1759 12.9962 24.19C13.3898 24.1957 13.7552 24.1985 14.0837 24.2014H14.9163C15.2448 24.1985 15.6102 24.1957 16.0038 24.19C17.1281 24.1759 18.2524 24.1504 19.3031 24.1107C21.5121 24.0258 23.0839 23.8927 23.8825 23.6803C25.2391 23.3178 26.3039 22.2501 26.6664 20.8907C26.8392 20.2507 26.9609 19.3982 27.0459 18.3759C27.1082 17.6339 27.1479 16.8466 27.1705 16.0564C27.179 15.7817 27.1818 15.524 27.1847 15.2946C27.1847 15.2125 27.1875 15.1417 27.1875 15.0794V14.9208ZM25.1484 15.0681C25.1484 15.1275 25.1484 15.1927 25.1456 15.2691C25.1428 15.49 25.1371 15.7336 25.1314 15.997C25.1116 16.7503 25.072 17.5036 25.0125 18.2031C24.936 19.115 24.8284 19.8627 24.6953 20.364C24.5197 21.0182 24.0043 21.5364 23.3529 21.7092C22.7582 21.8678 21.2601 21.9952 19.2238 22.0717C18.193 22.1113 17.0828 22.1368 15.9755 22.151C15.5875 22.1566 15.2278 22.1595 14.905 22.1595H14.095L13.0245 22.151C11.9172 22.1368 10.8099 22.1113 9.77617 22.0717C7.73994 21.9924 6.23896 21.8678 5.64707 21.7092C4.9957 21.5336 4.48027 21.0182 4.30469 20.364C4.17158 19.8627 4.06396 19.115 3.9875 18.2031C3.92803 17.5036 3.89121 16.7503 3.86855 15.997C3.86006 15.7336 3.85723 15.4872 3.85439 15.2691C3.85439 15.1927 3.85156 15.1247 3.85156 15.0681V14.9321C3.85156 14.8727 3.85156 14.8075 3.85439 14.7311C3.85723 14.5102 3.86289 14.2666 3.86855 14.0032C3.88838 13.2499 3.92803 12.4966 3.9875 11.7971C4.06396 10.8852 4.17158 10.1375 4.30469 9.63623C4.48027 8.98203 4.9957 8.46377 5.64707 8.29102C6.2418 8.13242 7.73994 8.00498 9.77617 7.92852C10.807 7.88887 11.9172 7.86338 13.0245 7.84922C13.4125 7.84355 13.7722 7.84072 14.095 7.84072H14.905L15.9755 7.84922C17.0828 7.86338 18.1901 7.88887 19.2238 7.92852C21.2601 8.00781 22.761 8.13242 23.3529 8.29102C24.0043 8.4666 24.5197 8.98203 24.6953 9.63623C24.8284 10.1375 24.936 10.8852 25.0125 11.7971C25.072 12.4966 25.1088 13.2499 25.1314 14.0032C25.1399 14.2666 25.1428 14.513 25.1456 14.7311C25.1456 14.8075 25.1484 14.8755 25.1484 14.9321V15.0681ZM11.9795 18.795L18.5498 14.9718L11.9795 11.2052V18.795Z" fill="black"/>
</svg>
